<?xml version="1.0" standalone="no"?><!DOCTYPE svg PUBLIC "-//W3C//DTD SVG 1.1//EN" "http://www.w3.org/Graphics/SVG/1.1/DTD/svg11.dtd"><svg t="1586364356752" class="icon" viewBox="0 0 1024 1024" version="1.1" xmlns="http://www.w3.org/2000/svg" p-id="9634" xmlns:xlink="http://www.w3.org/1999/xlink" width="200" height="200"><defs><style type="text/css"></style></defs><path d="M512 512m-512 0a512 512 0 1 0 1024 0 512 512 0 1 0-1024 0Z" fill="#F76363" p-id="9635"></path><path d="M934.523586 801.121103C922.924138 688.286897 827.603862 600.275862 711.697655 600.275862h-104.977655A24.09931 24.09931 0 0 1 582.62069 576.176552v-11.387586c0-10.292966 6.69131-19.102897 16.331034-22.722207 102.470621-38.523586 172.632276-206.636138 158.384552-325.437793C743.883034 104.500966 652.711724 14.141793 540.495448 1.588966a251.851034 251.851034 0 0 0-27.100689-1.553656l-0.847449-0.017655C375.790345-0.282483 264.827586 110.486069 264.827586 247.172414c0 106.354759 67.213241 260.502069 161.456552 295.353379 9.233655 3.407448 15.095172 12.588138 15.095172 22.439724v11.211035c0 13.312-10.78731 24.09931-24.09931 24.09931h-104.977655c-115.906207 0-211.226483 88.011034-222.825931 200.845241C181.72469 935.688828 336.525241 1024 512 1024s330.27531-88.311172 422.523586-222.878897z" fill="#F7B563" p-id="9636"></path><path d="M591.307034 116.70069c65.588966 18.025931 127.346759 58.368 166.894345 111.616-0.282483-3.901793-0.406069-7.891862-0.865103-11.70538C743.883034 104.500966 652.711724 14.141793 540.495448 1.588966a251.851034 251.851034 0 0 0-27.100689-1.553656l-0.847449-0.017655c-122.173793-0.264828-223.514483 88.187586-243.78262 204.499862h0.088276c3.160276 4.449103 6.249931 8.951172 9.622068 13.24138 1.235862-1.536 2.489379-3.054345 3.760552-4.555035 35.310345-42.01931 94.296276-51.74731 144.472276-29.501793a123.586207 123.586207 0 0 0 164.599172-67.001379z" fill="#F7E714" p-id="9637"></path><path d="M598.951724 542.066759c-9.639724 3.61931-16.331034 12.429241-16.331034 22.722207v11.387586c0 13.312 10.78731 24.09931 24.09931 24.09931h104.977655c16.295724 0 32.167724 1.836138 47.474759 5.15531V247.172414h-0.211862c0.247172 110.168276-66.242207 259.636966-160.008828 294.894345zM312.302345 600.275862h104.977655c13.312 0 24.09931-10.78731 24.09931-24.09931V564.965517c0-9.851586-5.861517-19.032276-15.095172-22.439724C332.040828 507.674483 264.827586 353.527172 264.827586 247.172414v358.258758A223.761655 223.761655 0 0 1 312.302345 600.275862z" fill="#F7E714" p-id="9638"></path><path d="M670.896552 706.206897c-69.932138 0-130.330483 40.99531-158.896552 100.104827-28.566069-59.109517-88.964414-100.104828-158.896552-100.104827a17.655172 17.655172 0 1 0 0 35.310344c77.876966 0 141.241379 63.364414 141.24138 141.24138v52.965517h35.310344v-52.965517c0-77.876966 63.364414-141.241379 141.24138-141.24138a17.655172 17.655172 0 1 0 0-35.310344z" fill="#D39450" p-id="9639"></path><path d="M934.523586 801.121103c-6.761931-65.783172-42.107586-122.968276-93.272276-159.355586L512 935.724138 182.731034 641.765517c-51.16469 36.38731-86.49269 93.572414-93.272275 159.355586C181.72469 935.688828 336.525241 1024 512 1024s330.27531-88.311172 422.523586-222.878897z" fill="#25AE88" p-id="9640"></path><path d="M759.172414 829.793103v130.507035c12.093793-6.69131 23.834483-13.929931 35.310345-21.53931V829.793103h-35.310345zM229.517241 938.760828c11.475862 7.609379 23.216552 14.848 35.310345 21.53931V829.793103h-35.310345v108.967725z" fill="#229974" p-id="9641"></path></svg>