<?xml version="1.0" standalone="no"?><!DOCTYPE svg PUBLIC "-//W3C//DTD SVG 1.1//EN" "http://www.w3.org/Graphics/SVG/1.1/DTD/svg11.dtd"><svg t="1587723271062" class="icon" viewBox="0 0 1024 1024" version="1.1" xmlns="http://www.w3.org/2000/svg" p-id="2785" xmlns:xlink="http://www.w3.org/1999/xlink" width="200" height="200"><defs><style type="text/css"></style></defs><path d="M752.128 896H254.805333c-34.338133 0-62.190933 28.672-62.190933 64 0 35.362133 27.818667 64 62.1568 64h497.3568c34.372267 0 62.190933-28.672 62.190933-64 0-35.362133-27.818667-64-62.190933-64zM814.318933 0H192.6144C123.904 0 68.266667 57.344 68.266667 128v576c0 70.690133 55.671467 128 124.347733 128h621.704533c68.676267 0 124.347733-57.309867 124.347734-128V128C938.666667 57.344 882.9952 0 814.318933 0zM298.666667 204.8a76.8 76.8 0 1 1 0 153.6 76.8 76.8 0 0 1 0-153.6zM733.866667 614.4H273.066667a51.2 51.2 0 0 1 0-102.4h460.8a51.2 51.2 0 1 1 0 102.4z m-25.6-256a76.8 76.8 0 1 1 0-153.6 76.8 76.8 0 0 1 0 153.6z" p-id="2786" fill="#4cf23b"></path></svg>