<?xml version="1.0" standalone="no"?><!DOCTYPE svg PUBLIC "-//W3C//DTD SVG 1.1//EN" "http://www.w3.org/Graphics/SVG/1.1/DTD/svg11.dtd"><svg t="1586678269357" class="icon" viewBox="0 0 1024 1024" version="1.1" xmlns="http://www.w3.org/2000/svg" p-id="4085" xmlns:xlink="http://www.w3.org/1999/xlink" width="200" height="200"><defs><style type="text/css"></style></defs><path d="M513.1 929.4c-18.3 0-36.6-4.4-53.4-13.2-104-54.8-278.4-167.8-278.4-309.2V301.9c0-19.7 15.6-35.8 35.2-36.4 74.7-2.5 144.8-37.2 192.1-95.4 21.9-26.8 55.1-42.2 91.2-42.2H510c33.8 0 66.1 15.7 88.5 43 49.7 60.6 123.4 94.7 202 94.7 1.9 0 3.8 0 5.7-0.1 10.1-0.7 19.9 2.9 27.2 9.8 7.3 6.9 11.5 16.5 11.5 26.5V607c0 141.4-174.4 254.4-278.4 309.2-16.7 8.8-35.1 13.2-53.4 13.2zM254.2 335.3V607c0 110 183.3 215.1 239.5 244.7 12.1 6.4 26.7 6.4 38.9 0C588.7 822.1 772 717 772 607V337.5c-89.7-7.1-172.3-50.1-229.9-120.3-8.5-10.4-20.2-16.3-32.1-16.3h-10.2c-13.9 0-26.9 5.7-34.7 15.3-53.1 65.2-128.6 107.5-210.9 119.1z" fill="#23EBB9" p-id="4086"></path><path d="M494.9 663.5c-9.2 0-18.4-3.5-25.5-10.4l-72.9-71.4c-14.4-14.1-14.6-37.2-0.5-51.5 14.1-14.4 37.1-14.6 51.5-0.5l47.2 46.3 110-108.8c14.3-14.1 37.4-14 51.5 0.3 14.1 14.3 14 37.4-0.3 51.5L520.5 653c-7.1 7-16.3 10.5-25.6 10.5z" fill="#23EBB9" p-id="4087"></path></svg>