<?xml version="1.0" standalone="no"?><!DOCTYPE svg PUBLIC "-//W3C//DTD SVG 1.1//EN" "http://www.w3.org/Graphics/SVG/1.1/DTD/svg11.dtd"><svg t="1586253451958" class="icon" viewBox="0 0 1024 1024" version="1.1" xmlns="http://www.w3.org/2000/svg" p-id="2308" xmlns:xlink="http://www.w3.org/1999/xlink" width="200" height="200"><defs><style type="text/css"></style></defs><path d="M96 224l160-160h351.872C643.296 64 672 92.48 672 128.128V192h-64V159.968A31.776 31.776 0 0 0 576.032 128H352v160H160v448.032c0 17.92 14.304 31.968 31.968 31.968H256v64H160.128A63.968 63.968 0 0 1 96 767.872V224z m192-96L192 224h96V128z m64 288l160-160h352.16C899.424 256 928 284.512 928 319.712V896.32A63.744 63.744 0 0 1 864.16 960h-448.32A63.776 63.776 0 0 1 352 896.288V416z m192-96l-128 128h128v-128z m64 192h-192v352.224a32 32 0 0 0 32.224 31.776h383.552A32 32 0 0 0 864 864.224V351.776A32 32 0 0 0 831.776 320H608v192z" fill="#1296db" p-id="2309"></path></svg>