<?xml version="1.0" standalone="no"?><!DOCTYPE svg PUBLIC "-//W3C//DTD SVG 1.1//EN" "http://www.w3.org/Graphics/SVG/1.1/DTD/svg11.dtd"><svg t="1588687021361" class="icon" viewBox="0 0 1024 1024" version="1.1" xmlns="http://www.w3.org/2000/svg" p-id="4161" xmlns:xlink="http://www.w3.org/1999/xlink" width="200" height="200"><defs><style type="text/css"></style></defs><path d="M923.648 197.76L711.552 621.824h48.384c13.44 0 24.448 10.88 24.448 24.448 0 13.44-10.88 24.448-24.448 24.448h-72.832l-51.2 102.4c-5.632 11.392-15.488 19.84-27.52 23.808-4.864 1.664-9.984 2.432-15.104 2.432-7.296 0-14.464-1.664-21.248-4.992l-3.84-1.92c-11.392-5.632-19.84-15.36-23.808-27.52-3.968-12.032-3.072-24.96 2.56-36.224L576 670.72H259.328c-13.44 0-24.448-10.88-24.448-24.448 0-13.44 10.88-24.448 24.448-24.448h341.248l233.216-466.432c-9.6-1.536-19.456-2.688-29.568-2.688H219.776c-100.352 0-182.528 82.176-182.528 182.528v503.68c0 100.352 82.176 182.528 182.528 182.528h584.448c100.352 0 182.528-82.176 182.528-182.528V335.232c0-54.784-24.576-103.936-63.104-137.472zM217.856 427.52c0-13.44 10.88-24.448 24.448-24.448h206.72c13.44 0 24.448 10.88 24.448 24.448 0 13.44-10.88 24.448-24.448 24.448H242.176c-13.44 0-24.32-11.008-24.32-24.448z" fill="#f4e04d" p-id="4162"></path><path d="M580.992 771.456c-12.416-6.272-17.536-21.376-11.264-33.792L929.024 19.072c6.272-12.416 21.376-17.536 33.792-11.264 12.416 6.272 17.536 21.376 11.264 33.792L614.912 760.064c-6.272 12.544-21.376 17.536-33.92 11.392z" fill="#f4e04d" p-id="4163"></path></svg>