<?xml version="1.0" standalone="no"?><!DOCTYPE svg PUBLIC "-//W3C//DTD SVG 1.1//EN" "http://www.w3.org/Graphics/SVG/1.1/DTD/svg11.dtd"><svg t="1586667314251" class="icon" viewBox="0 0 1025 1024" version="1.1" xmlns="http://www.w3.org/2000/svg" p-id="2143" xmlns:xlink="http://www.w3.org/1999/xlink" width="200.1953125" height="200"><defs><style type="text/css"></style></defs><path d="M512.01357 0c282.829128 0 512.019284 229.201583 512.019284 511.992144 0 282.780562-229.184442 512.007856-512.019284 512.007856C229.240151 1024 0 794.776991 0 511.992144 0 229.224438 229.240151 0 512.01357 0L512.01357 0zM545.850219 688.341819c0.56423-32.283945 2.818292-55.640203 6.717906-69.998781 3.922469-14.382861 9.870451-27.078746 18.001074-38.154792 8.0792-11.051762 25.281782-28.284341 51.590604-51.590604 39.17612-34.689421 65.540651-64.179357 78.976463-88.411243 13.485807-24.2276 20.205142-50.714977 20.205142-79.40642 0-49.666509-19.128105-91.972319-57.438596-126.974566-38.304777-34.996534-89.589697-52.511941-153.901899-52.511941-60.7197 0-109.564862 16.309813-146.514059 48.896585-36.872062 32.613912-59.151284 79.590688-66.567692 140.896044l82.956069 9.870451c7.180717-45.765467 22.334931-79.40642 45.356936-100.972856 23.027719-21.509298 51.742018-32.283945 86.158609-32.283945 35.537908 0 65.66921 11.901678 90.208208 35.665039 24.511858 23.770503 36.76493 51.38491 36.76493 82.798942 0 17.33114-4.179586 33.356696-12.588753 47.998103-8.307749 14.691402-26.537371 34.355169-54.5146 58.99987C543.339039 497.824975 523.926676 516.6174 513.157742 529.49041 498.489195 547.134377 487.875961 564.648357 481.313754 582.008066c-8.977682 23.022005-13.464381 50.407864-13.464381 82.094726 0 5.390895 0.128559 13.492949 0.435671 24.261883L545.850219 688.341819 545.850219 688.341819zM555.313567 850.324346l0-92.000887L463.329821 758.323458l0 92.000887L555.313567 850.324346 555.313567 850.324346zM555.313567 850.324346" p-id="2144" fill="#BEBEBE"></path></svg>