<?xml version="1.0" standalone="no"?><!DOCTYPE svg PUBLIC "-//W3C//DTD SVG 1.1//EN" "http://www.w3.org/Graphics/SVG/1.1/DTD/svg11.dtd"><svg t="1588212264442" class="icon" viewBox="0 0 1024 1024" version="1.1" xmlns="http://www.w3.org/2000/svg" p-id="2157" data-spm-anchor-id="a313x.7781069.0.i0" xmlns:xlink="http://www.w3.org/1999/xlink" width="200" height="200"><defs><style type="text/css"></style></defs><path d="M799.216485 347.663515C799.216485 166.632727 652.443152 19.859394 471.443394 19.859394 290.412606 19.859394 143.639273 166.632727 143.639273 347.663515a317.595152 317.595152 0 0 0 167.501575 283.989333A441.095758 441.095758 0 0 0 37.981091 959.581091a36.739879 36.739879 0 0 0 29.044364 43.566545h7.292121a35.436606 35.436606 0 0 0 36.305454-29.013333 369.943273 369.943273 0 0 1 356.941576-298.728727h7.261091a330.441697 330.441697 0 0 0 324.390788-327.804121v0.06206z m-582.749091 0a254.94497 254.94497 0 0 1 509.92097 0 257.303273 257.303273 0 0 1-251.283394 254.91394h-10.984728a259.04097 259.04097 0 0 1-247.621818-254.91394z m506.290424 327.804121a34.350545 34.350545 0 0 0 36.305455 36.274425h182.085818a36.305455 36.305455 0 1 0 0-72.610909H759.001212a36.429576 36.429576 0 0 0-36.274424 36.305454z m218.515394 105.534061h-291.405576a36.429576 36.429576 0 1 0 0 72.859151h291.405576a36.429576 36.429576 0 0 0 0-72.859151z m0 145.749333H653.498182a36.429576 36.429576 0 0 0 0 72.828122h287.744a34.350545 34.350545 0 0 0 36.305454-36.305455c0-20.107636-16.228848-36.429576-36.305454-36.522667h0.03103z" fill="#23ebb9" p-id="2158" data-spm-anchor-id="a313x.7781069.0.i1" class="selected"></path></svg>