<?xml version="1.0" standalone="no"?><!DOCTYPE svg PUBLIC "-//W3C//DTD SVG 1.1//EN" "http://www.w3.org/Graphics/SVG/1.1/DTD/svg11.dtd"><svg t="1585805012373" class="icon" viewBox="0 0 1024 1024" version="1.1" xmlns="http://www.w3.org/2000/svg" p-id="31316" xmlns:xlink="http://www.w3.org/1999/xlink" width="200" height="200"><defs><style type="text/css"></style></defs><path d="M798.72 76.8H947.2v145.92h51.2V25.6h-199.68zM947.2 798.72v145.92h-148.48v51.2H998.4v-197.12zM66.56 222.72V76.8h148.48V25.6H12.8v197.12zM215.04 944.64H66.56v-145.92H12.8v197.12h202.24z" fill="#4cf23b" p-id="31317"></path><path d="M453.12 468.48c30.72 0 53.76-25.6 53.76-56.32 0-30.72-23.04-56.32-53.76-56.32-30.72 0-53.76 25.6-53.76 56.32 0 33.28 25.6 56.32 53.76 56.32z m0-40.96c-7.68 0-12.8-5.12-12.8-12.8s5.12-12.8 12.8-12.8 12.8 5.12 12.8 12.8-5.12 12.8-12.8 12.8zM760.32 542.72l-110.08-61.44c-5.12-2.56-10.24-5.12-15.36-5.12-5.12 0-10.24 2.56-15.36 5.12l-110.08 61.44c-10.24 5.12-15.36 15.36-15.36 28.16v61.44c0 40.96 15.36 79.36 40.96 110.08 28.16 30.72 64 48.64 99.84 48.64 38.4 0 74.24-17.92 99.84-48.64s40.96-69.12 40.96-110.08v-61.44c0-12.8-5.12-23.04-15.36-28.16z m-125.44 220.16c-61.44 0-115.2-61.44-115.2-133.12v-61.44c0-2.56 0-2.56 2.56-5.12l110.08-61.44h5.12l110.08 61.44c2.56 0 2.56 2.56 2.56 5.12v61.44c0 71.68-53.76 133.12-115.2 133.12z" fill="#4cf23b" p-id="31318"></path><path d="M663.04 632.32l-38.4-17.92 28.16-51.2c2.56-5.12 2.56-15.36-5.12-17.92-2.56 0-5.12-2.56-7.68-2.56-5.12 0-10.24 2.56-12.8 7.68L596.48 614.4c0 2.56-2.56 2.56-2.56 5.12s0 7.68 2.56 10.24c2.56 2.56 5.12 5.12 7.68 5.12l35.84 17.92-28.16 51.2c-2.56 5.12-2.56 15.36 5.12 17.92 2.56 0 5.12 2.56 7.68 2.56 5.12 0 10.24-2.56 12.8-7.68l35.84-64v-2.56c0-7.68-2.56-15.36-10.24-17.92z" fill="#4cf23b" p-id="31319"></path><path d="M517.12 737.28c-10.24-12.8-17.92-25.6-23.04-40.96-2.56 0-7.68 2.56-12.8 2.56-7.68 0-12.8 5.12-15.36 10.24-2.56 5.12-2.56 12.8 0 17.92l12.8 30.72h-51.2l12.8-30.72c2.56-5.12 2.56-12.8 0-17.92-2.56-5.12-10.24-10.24-15.36-10.24-87.04-12.8-148.48-79.36-148.48-161.28v-51.2c0-10.24-10.24-20.48-20.48-20.48-12.8 0-20.48 10.24-20.48 20.48v48.64c0 94.72 64 174.08 158.72 197.12l-15.36 35.84c-2.56 7.68-2.56 12.8 2.56 20.48 5.12 5.12 10.24 10.24 17.92 10.24H512c7.68 0 12.8-2.56 17.92-10.24 5.12-5.12 5.12-12.8 2.56-20.48l-15.36-30.72z" fill="#4cf23b" p-id="31320"></path><path d="M453.12 668.16c10.24 0 20.48 0 30.72-2.56-2.56-10.24-2.56-23.04-2.56-33.28v-7.68c-10.24 2.56-17.92 2.56-28.16 2.56-53.76 0-94.72-38.4-94.72-84.48v-194.56c0-46.08 43.52-84.48 94.72-84.48 53.76 0 94.72 38.4 94.72 84.48v158.72l40.96-23.04v-135.68c0-69.12-61.44-125.44-138.24-125.44s-138.24 56.32-138.24 125.44v197.12c5.12 66.56 66.56 122.88 140.8 122.88z" fill="#4cf23b" p-id="31321"></path></svg>