<?xml version="1.0" standalone="no"?><!DOCTYPE svg PUBLIC "-//W3C//DTD SVG 1.1//EN" "http://www.w3.org/Graphics/SVG/1.1/DTD/svg11.dtd"><svg t="1585803820719" class="icon" viewBox="0 0 1280 1024" version="1.1" xmlns="http://www.w3.org/2000/svg" p-id="24185" xmlns:xlink="http://www.w3.org/1999/xlink" width="250" height="200"><defs><style type="text/css"></style></defs><path d="M426.666667 810.24A43.52 43.52 0 0 1 426.666667 810.666667v170.666666a42.666667 42.666667 0 1 1-85.333334 0v-170.666666a43.52 43.52 0 0 1 0-0.426667C174.762667 801.962667 42.666667 660.650667 42.666667 488.192a42.666667 42.666667 0 1 1 85.333333 0C128 619.434667 230.741333 725.333333 356.864 725.333333h54.272C537.258667 725.333333 640 619.52 640 488.192a42.666667 42.666667 0 1 1 85.333333 0c0 172.458667-132.096 313.770667-298.666666 322.048zM384 128a85.333333 85.333333 0 0 0-85.333333 85.333333v256a85.333333 85.333333 0 1 0 170.666666 0v-256a85.333333 85.333333 0 0 0-85.333333-85.333333z m0-85.333333a170.666667 170.666667 0 0 1 170.666667 170.666666v256a170.666667 170.666667 0 1 1-341.333334 0v-256a170.666667 170.666667 0 0 1 170.666667-170.666666zM682.666667 938.666667h426.666666a85.333333 85.333333 0 0 0 85.333334-85.333334V170.666667a85.333333 85.333333 0 0 0-85.333334-85.333334H682.666667a42.666667 42.666667 0 0 1 0-85.333333h426.666666a170.666667 170.666667 0 0 1 170.666667 170.666667v682.666666a170.666667 170.666667 0 0 1-170.666667 170.666667H682.666667a42.666667 42.666667 0 1 1 0-85.333333z m128-597.333334h256a42.666667 42.666667 0 1 1 0 85.333334h-256a42.666667 42.666667 0 0 1 0-85.333334z m0 170.666667h256a42.666667 42.666667 0 1 1 0 85.333333h-256a42.666667 42.666667 0 0 1 0-85.333333z m0 170.666667h256a42.666667 42.666667 0 1 1 0 85.333333h-256a42.666667 42.666667 0 0 1 0-85.333333z" fill="#db639b" p-id="24186"></path></svg>