<?xml version="1.0" standalone="no"?><!DOCTYPE svg PUBLIC "-//W3C//DTD SVG 1.1//EN" "http://www.w3.org/Graphics/SVG/1.1/DTD/svg11.dtd"><svg t="1585731378569" class="icon" viewBox="0 0 1327 1024" version="1.1" xmlns="http://www.w3.org/2000/svg" p-id="15892" xmlns:xlink="http://www.w3.org/1999/xlink" width="259.1796875" height="200"><defs><style type="text/css"></style></defs><path d="M0 256V341.333333h1327.407407V256H0zM729.163852 709.214815h-74.676148l-80.213334 157.392592h76.534519z m165.925926 0h-74.676148l-76.496593 157.392592h76.496593z m309.741037 0h-221.259852l-73.765926 157.392592h217.543111zM1171.607704 0a155.496296 155.496296 0 0 1 110.933333 48.848593A164.636444 164.636444 0 0 1 1327.407407 164.02963v695.94074a164.67437 164.67437 0 0 1-44.86637 115.218963A155.496296 155.496296 0 0 1 1171.607704 1024H157.620148a155.496296 155.496296 0 0 1-110.933333-48.810667 164.67437 164.67437 0 0 1-44.866371-115.218963V164.02963A160.085333 160.085333 0 0 1 156.709926 0h1014.897778z m0 0" p-id="15893" fill="#83c6c2"></path></svg>