<?xml version="1.0" standalone="no"?><!DOCTYPE svg PUBLIC "-//W3C//DTD SVG 1.1//EN" "http://www.w3.org/Graphics/SVG/1.1/DTD/svg11.dtd"><svg t="1585757489543" class="icon" viewBox="0 0 1024 1024" version="1.1" xmlns="http://www.w3.org/2000/svg" p-id="1655" xmlns:xlink="http://www.w3.org/1999/xlink" width="200" height="200"><defs><style type="text/css"></style></defs><path d="M175.869333 811.130667 175.869333 811.130667 175.869333 811.130667zM939.024 276.525333 755.818667 276.525333c-4.84 61.173333-57.48 109.353333-121.753333 109.353333l-244.133333 0 0 0c-64.266667 0-116.9-48.18-121.746667-109.353333L84.98 276.525333C38.24 276.525333 0 313.645333 0 359.012l0 536.145333c0 45.36 38.24 82.473333 84.98 82.473333l854.044 0c46.733333 0 84.973333-37.113333 84.973333-82.473333L1023.997333 359.012C1023.997333 313.645333 985.757333 276.525333 939.024 276.525333zM259.109333 425.032c52.8 0 95.6 42.14 95.6 94.133333 0 52-42.8 94.12-95.6 94.12s-95.602667-42.12-95.602667-94.12C163.506667 467.172 206.309333 425.032 259.109333 425.032zM434.922667 761.092c0 34.026667-22.042667 50.04-57.096 50.04L147.74 811.132c-35.056 0-56.802667-16.013333-56.802667-50.04l0-85.846667c0-34.013333 63.966667-59.973333 99.022667-59.973333 0 0 10.196 0.146667 14.989333 2.413333 4.793333 2.26 38.973333 24.233333 54.16 24.233333 15.193333 0 53.576-21.606667 58.762667-24.233333 5.18-2.653333 11.926667-2.213333 11.926667-2.213333 35.053333 0 105.122667 25.76 105.122667 59.773333L434.921333 761.092 434.922667 761.092zM699.218667 805.717333 540.918667 805.717333c-12.18 0-28.476-13.926667-28.476-30.933333 0-17.006667 17.669333-30.946667 29.849333-30.946667l155.086667 0c12.193333 0 27.506667 13.94 27.506667 30.946667C724.885333 791.792 711.412 805.717333 699.218667 805.717333zM886.310667 684.458667 546.398667 684.458667c-23.373333 0-34.396-13.906667-34.396-30.913333 0-17.013333 11.022667-30.946667 34.396-30.946667l339.912 0c23.373333 0 32.906667 13.933333 32.906667 30.946667C919.217333 670.552 909.684 684.458667 886.310667 684.458667zM886.750667 564.458667 546.832 564.458667c-23.366667 0-34.389333-13.913333-34.389333-30.92 0-17.013333 11.022667-30.946667 34.389333-30.946667l339.918667 0c23.373333 0 32.9 13.933333 32.9 30.946667C919.650667 550.545333 910.124 564.458667 886.750667 564.458667zM723.925333 251.366667c0 56.88-47.5 102.993333-106.1 102.993333L405.738667 354.36l0 0 0 0c-58.6 0-106.102667-46.113333-106.102667-102.993333 0-56.76 47.316-102.793333 105.749333-102.973333 0.54-56.433333 47.816-102.026667 106.086667-102.026667 58.253333 0 105.54 45.593333 106.08 102.02 0.086667 0 0.18-0.006667 0.273333-0.006667C676.425333 148.38 723.925333 194.493333 723.925333 251.366667zM511.785333 100.073333c-34.909333 0-63.206667 27.466667-63.206667 61.353333 0 33.88 28.296 61.346667 63.206667 61.346667 34.906667 0 63.2-27.466667 63.2-61.346667C574.985333 127.54 546.692 100.073333 511.785333 100.073333z" p-id="1656" fill="#d4237a"></path></svg>