<?xml version="1.0" standalone="no"?><!DOCTYPE svg PUBLIC "-//W3C//DTD SVG 1.1//EN" "http://www.w3.org/Graphics/SVG/1.1/DTD/svg11.dtd"><svg t="1585729433585" class="icon" viewBox="0 0 1024 1024" version="1.1" xmlns="http://www.w3.org/2000/svg" p-id="3682" xmlns:xlink="http://www.w3.org/1999/xlink" width="200" height="200"><defs><style type="text/css"></style></defs><path d="M926.76749410487 395.92169856797653H548.7239622436873v-36.47173194106056h378.04353186118277v36.47173194106056zM926.76749410487 568.8117367195767H548.7239622436873v-36.47173194106056h378.04353186118277v36.47173194106056zM926.76749410487 741.3510856862928H110.36179564961793V704.8793525123386h816.4056984552523v36.47173317395414z" fill="#f3ca7e" p-id="3683"></path><path d="M960.0830184503986 899.1614654628947h-894.2588183231136c-33.666214763306286 0-60.66932391777072-27.35379957224221-60.66932391777072-60.66932391777072V261.9582203503069c0-33.666214763306286 27.35379957224221-60.66932391777072 60.66932391777072-60.66932391777072h894.2588183231136c33.666214763306286 0 60.66932391777072 27.35379957224221 60.66932391777072 60.66932391777072V838.1414511273463c0.3506891848841857 33.666214763306286-27.003109154464426 61.0200131026549-60.66932391777072 61.02001433554849zM65.82420012728528 223.38234960126044c-21.392073566062315 0-38.57587074904644 17.183797182984126-38.57587074904644 38.57587074904644V838.1414511273463c0 21.392073566062315 17.183797182984126 38.57587074904644 38.57587074904644 38.57587074904644h894.2588183231136c21.392073566062315 0 38.57587074904644-17.183797182984126 38.57587074904644-38.57587074904644V261.9582203503069c0-21.392073566062315-17.183797182984126-38.57587074904644-38.57587074904644-38.57587074904644h-894.2588183231136z" fill="#f3ca7e" p-id="3684"></path><path d="M365.3132312850511 566.0062183089287c24.19759197671017-24.54828116159435 37.52380196150029-56.461047534692526 37.52380196150029-90.82864066776719 0-71.89139509457493-59.617255130224564-130.45658020435977-133.2620986150076-130.45658020435977s-133.2620986150076 58.56518510978483-133.2620986150076 130.45658020435977c0 34.36759436596825 13.326209984790124 66.28035950617283 37.5238007286067 90.82864066776719l-4.9096559857401525 30.510007167774244c-0.7013796026619634 3.5068967804162257 1.0520687875461494 6.663104375948265 3.8575871981940026 8.41655399904997 1.7534483902081128 1.0520687875461494 3.1562075955320394 1.7534483902081128 4.9096559857401525 2.104137575092299 1.0520687875461494 2.1041388079858905 3.1562075955320394 3.8575871981940026 5.611035588402117 4.208277615971781 0.7013796026619634 0 1.4027592053239268 0.3506891848841857 2.1041388079858905 0.3506891848841857 1.0520687875461494 2.8055184106478537 3.5068967804162257 4.9096559857401525 6.663105608841858 5.26034640351793 1.0520687875461494 0.3506891848841857 2.1041388079858905 0.3506891848841857 3.1562075955320394 0.7013796026619634v0.3506891848841857c1.4027592053239268 2.8055184106478537 4.208276383078189 4.558966800855966 7.364483978610229 4.9096559857401525l16.48241758032216 1.4027592053239268c3.1562075955320394 0.3506891848841857 6.312415191064079-1.4027592053239268 8.065863581272191-3.8575871981940026h2.4548279928700762c3.5068967804162257 2.4548279928700762 7.715174396388005 2.4548279928700762 9.468622786596121 2.4548279928700762h0.7013796026619634c1.7534483902081128 0.7013796026619634 3.8575871981940026 0.7013796026619634 5.9617260061798945 0.35069041777777776h1.0520687875461494l12.624830382128158 1.4027592053239268h1.0520687875461494c1.4027592053239268 0 2.4548279928700762-0.3506891848841857 3.8575871981940026-0.7013796026619634 4.208276383078189 0.3506891848841857 7.364483978610229 0.3506891848841857 11.572761594582008 0 1.4027592053239268 0.7013796026619634 3.1562075955320394 1.0520687875461494 4.558966800855966 0.7013796026619634l12.624830382128158-1.4027592053239268h0.7013783697683714c1.7534483902081128 0.3506891848841857 3.1562075955320394 0.3506891848841857 4.909657218633744-0.35069041777777776h1.7534483902081128c2.1041388079858905 0 6.312415191064079-0.3506891848841857 9.819311971480305-2.4548279928700762h2.4548279928700762c1.7534483902081128 2.4548279928700762 4.9096559857401525 4.208276383078189 8.065864814165783 3.8575871981940026l15.7810379776602-1.4027592053239268c2.1041388079858905 0 4.208276383078189-1.0520687875461494 5.611035588402117-2.4548279928700762 0.7013796026619634-0.7013796026619634 1.4027592053239268-1.7534483902081128 2.104137575092299-2.4548279928700762 1.0520687875461494-0.3506891848841857 2.4548279928700762-0.3506891848841857 3.5068980133098178-0.7013796026619634 3.1562075955320394-0.7013796026619634 5.611035588402117-2.8055184106478537 6.663104375948265-5.260345170624337 0.7013796026619634 0 1.4027592053239268-0.3506891848841857 2.1041388079858905-0.35069041777777776 2.4548279928700762-0.7013796026619634 4.558966800855966-2.1041388079858905 5.611035588402117-4.208276383078189 1.4027592053239268-0.3506891848841857 3.1562075955320394-1.0520687875461494 4.9096559857401525-2.1041388079858905 2.8055184106478537-1.7534483902081128 4.208276383078189-5.26034640351793 3.8575871981940026-8.416552766156379l-5.611035588402117-30.86069758555202z m-47.34311393298059-125.19623380084184l5.26034640351793-10.871381991920046 2.805517177754262 11.572761594582008h10.871381991920046l-8.767243183934157 5.611035588402117c0.7013796026619634 3.5068967804162257 1.4027592053239268 7.715174396388005 2.1041388079858905 11.572760361688415-2.8055184106478537-2.8055184106478537-5.9617260061798945-4.9096559857401525-8.767243183934157-7.013793560832451-3.5068967804162257 2.1041388079858905-7.364483978610229 3.5068967804162257-10.17000238925808 5.611035588402117l3.5068967804162257-10.17000238925808-8.065863581272191-6.312415191064079c3.8575871981940026-0.7013796026619634 7.364483978610229 0 11.222071176804233 0z m-14.72896919011405 41.73207834457848l-10.871380759026454-2.8055184106478537-5.9617260061798945 9.468622786596121-1.4027592053239268-10.871381991920046c-2.8055184106478537-1.4027592053239268-6.663104375948265-2.1041388079858905-10.17000238925808-2.805517177754262l10.17000238925808-4.208277615971781c0-3.5068967804162257-0.7013796026619634-7.013794793726042-0.7013796026619634-10.871380759026454l7.364485211503821 7.715173163494415 10.17000238925808-2.805517177754262-5.26034640351793 8.767243183934157c2.4548279928700762 2.4548279928700762 4.558966800855966 5.26034640351793 6.663104375948265 8.41655399904997z m-41.03069874191651-66.63104992395063l7.364485211503821-21.392073566062315 7.364483978610229 21.392073566062315h22.093453168724277l-18.23586597053028 12.975520799905938v0.7013796026619634l5.9617260061798945 18.58655515541446-16.83310799809994-11.572761594582008-16.83310676520635 11.572761594582008 5.961724773286302-18.58655515541446v-0.7013796026619634l-18.23586597053028-12.975520799905938h21.392073566062315z m-24.898970346478542 49.44725274096648l10.17000238925808 2.805517177754262 7.364483978610229-7.715173163494415c0 3.5068967804162257-0.7013796026619634 7.013794793726042-0.7013796026619634 10.871380759026454l10.17000238925808 4.208277615971781c-3.5068967804162257 0.7013796026619634-7.364483978610229 1.4027592053239268-10.17000238925808 2.805517177754262l-1.4027592053239268 10.871381991920046-6.663104375948265-9.468622786596121-10.17000238925808 2.8055184106478537c2.1041388079858905-2.8055184106478537 4.558966800855966-5.611035588402117 6.663105608841858-8.767243183934157l-5.26034640351793-8.41655399904997z m-24.19759197671017-23.84690155893239l2.1041388079858905-11.572761594582008 5.961724773286302 10.871381991920046c3.5068967804162257 0 7.364483978610229-0.7013796026619634 10.871381991920046 0l-8.065863581272191 6.312415191064079 3.5068967804162257 10.17000238925808c-2.8055184106478537-2.1041388079858905-6.663104375948265-3.5068967804162257-10.170001156364494-5.611035588402117-2.8055184106478537 2.1041388079858905-5.9617260061798945 4.208276383078189-8.767244416827747 7.013793560832451 0.7013796026619634-3.5068967804162257 1.4027592053239268-7.715174396388005 2.1041388079858905-11.572760361688415l-8.767243183934157-5.611035588402117h11.222071176804233z m121.68933702042563 124.4948541981799a113.97416262403763 113.97416262403763 0 0 1-65.22828948573309 20.34000477851616c-23.496212374048206 0-46.29104514543445-7.013794793726042-65.22829071862668-20.34000477851616-2.8055184106478537-1.7534483902081128-3.1562075955320394-5.611035588402117-1.4027592053239268-8.065863581272191 1.7534483902081128-2.4548279928700762 5.611035588402117-3.1562075955320394 8.41655399904997-1.4027592053239268 17.183797182984126 11.923450779466195 37.52380196150029 18.23586597053028 58.56518510978483 18.235867203423865s41.381387926800706-6.312415191064079 58.56518510978483-18.235867203423865c2.8055184106478537-1.7534483902081128 6.312415191064079-1.4027592053239268 8.41655399904997 1.4027592053239268 1.4027592053239268 2.8055184106478537 0.7013796026619634 6.312415191064079-2.1041388079858905 8.065863581272191z" fill="#f3ca7e" p-id="3685"></path><path d="M365.3132312850511 566.0062183089287c24.19759197671017-24.54828116159435 37.52380196150029-56.461047534692526 37.52380196150029-90.82864066776719 0-71.89139509457493-59.617255130224564-130.45658020435977-133.2620986150076-130.45658020435977s-133.2620986150076 58.56518510978483-133.2620986150076 130.45658020435977c0 34.36759436596825 13.326209984790124 66.28035950617283 37.5238007286067 90.82864066776719l-4.9096559857401525 30.510007167774244c-0.7013796026619634 3.5068967804162257 1.0520687875461494 6.663104375948265 3.8575871981940026 8.41655399904997 1.7534483902081128 1.0520687875461494 3.1562075955320394 1.7534483902081128 4.9096559857401525 2.104137575092299 1.0520687875461494 2.1041388079858905 3.1562075955320394 3.8575871981940026 5.611035588402117 4.208277615971781 0.7013796026619634 0 1.4027592053239268 0.3506891848841857 2.1041388079858905 0.3506891848841857 1.0520687875461494 2.8055184106478537 3.5068967804162257 4.9096559857401525 6.663105608841858 5.26034640351793 1.0520687875461494 0.3506891848841857 2.1041388079858905 0.3506891848841857 3.1562075955320394 0.7013796026619634v0.3506891848841857c1.4027592053239268 2.8055184106478537 4.208276383078189 4.558966800855966 7.364483978610229 4.9096559857401525l16.48241758032216 1.4027592053239268c3.1562075955320394 0.3506891848841857 6.312415191064079-1.4027592053239268 8.065863581272191-3.8575871981940026h2.4548279928700762c3.5068967804162257 2.4548279928700762 7.715174396388005 2.4548279928700762 9.468622786596121 2.4548279928700762h0.7013796026619634c1.7534483902081128 0.7013796026619634 3.8575871981940026 0.7013796026619634 5.9617260061798945 0.35069041777777776h1.0520687875461494l12.624830382128158 1.4027592053239268h1.0520687875461494c1.4027592053239268 0 2.4548279928700762-0.3506891848841857 3.8575871981940026-0.7013796026619634 4.208276383078189 0.3506891848841857 7.364483978610229 0.3506891848841857 11.572761594582008 0 1.4027592053239268 0.7013796026619634 3.1562075955320394 1.0520687875461494 4.558966800855966 0.7013796026619634l12.624830382128158-1.4027592053239268h0.7013783697683714c1.7534483902081128 0.3506891848841857 3.1562075955320394 0.3506891848841857 4.909657218633744-0.35069041777777776h1.7534483902081128c2.1041388079858905 0 6.312415191064079-0.3506891848841857 9.819311971480305-2.4548279928700762h2.4548279928700762c1.7534483902081128 2.4548279928700762 4.9096559857401525 4.208276383078189 8.065864814165783 3.8575871981940026l15.7810379776602-1.4027592053239268c2.1041388079858905 0 4.208276383078189-1.0520687875461494 5.611035588402117-2.4548279928700762 0.7013796026619634-0.7013796026619634 1.4027592053239268-1.7534483902081128 2.104137575092299-2.4548279928700762 1.0520687875461494-0.3506891848841857 2.4548279928700762-0.3506891848841857 3.5068980133098178-0.7013796026619634 3.1562075955320394-0.7013796026619634 5.611035588402117-2.8055184106478537 6.663104375948265-5.260345170624337 0.7013796026619634 0 1.4027592053239268-0.3506891848841857 2.1041388079858905-0.35069041777777776 2.4548279928700762-0.7013796026619634 4.558966800855966-2.1041388079858905 5.611035588402117-4.208276383078189 1.4027592053239268-0.3506891848841857 3.1562075955320394-1.0520687875461494 4.9096559857401525-2.1041388079858905 2.8055184106478537-1.7534483902081128 4.208276383078189-5.26034640351793 3.8575871981940026-8.416552766156379l-5.611035588402117-30.86069758555202z m-47.34311393298059-125.19623380084184l5.26034640351793-10.871381991920046 2.805517177754262 11.572761594582008h10.871381991920046l-8.767243183934157 5.611035588402117c0.7013796026619634 3.5068967804162257 1.4027592053239268 7.715174396388005 2.1041388079858905 11.572760361688415-2.8055184106478537-2.8055184106478537-5.9617260061798945-4.9096559857401525-8.767243183934157-7.013793560832451-3.5068967804162257 2.1041388079858905-7.364483978610229 3.5068967804162257-10.17000238925808 5.611035588402117l3.5068967804162257-10.17000238925808-8.065863581272191-6.312415191064079c3.8575871981940026-0.7013796026619634 7.364483978610229 0 11.222071176804233 0z m-14.72896919011405 41.73207834457848l-10.871380759026454-2.8055184106478537-5.9617260061798945 9.468622786596121-1.4027592053239268-10.871381991920046c-2.8055184106478537-1.4027592053239268-6.663104375948265-2.1041388079858905-10.17000238925808-2.805517177754262l10.17000238925808-4.208277615971781c0-3.5068967804162257-0.7013796026619634-7.013794793726042-0.7013796026619634-10.871380759026454l7.364485211503821 7.715173163494415 10.17000238925808-2.805517177754262-5.26034640351793 8.767243183934157c2.4548279928700762 2.4548279928700762 4.558966800855966 5.26034640351793 6.663104375948265 8.41655399904997z m-41.03069874191651-66.63104992395063l7.364485211503821-21.392073566062315 7.364483978610229 21.392073566062315h22.093453168724277l-18.23586597053028 12.975520799905938v0.7013796026619634l5.9617260061798945 18.58655515541446-16.83310799809994-11.572761594582008-16.83310676520635 11.572761594582008 5.961724773286302-18.58655515541446v-0.7013796026619634l-18.23586597053028-12.975520799905938h21.392073566062315z m-24.898970346478542 49.44725274096648l10.17000238925808 2.805517177754262 7.364483978610229-7.715173163494415c0 3.5068967804162257-0.7013796026619634 7.013794793726042-0.7013796026619634 10.871380759026454l10.17000238925808 4.208277615971781c-3.5068967804162257 0.7013796026619634-7.364483978610229 1.4027592053239268-10.17000238925808 2.805517177754262l-1.4027592053239268 10.871381991920046-6.663104375948265-9.468622786596121-10.17000238925808 2.8055184106478537c2.1041388079858905-2.8055184106478537 4.558966800855966-5.611035588402117 6.663105608841858-8.767243183934157l-5.26034640351793-8.41655399904997z m-24.19759197671017-23.84690155893239l2.1041388079858905-11.572761594582008 5.961724773286302 10.871381991920046c3.5068967804162257 0 7.364483978610229-0.7013796026619634 10.871381991920046 0l-8.065863581272191 6.312415191064079 3.5068967804162257 10.17000238925808c-2.8055184106478537-2.1041388079858905-6.663104375948265-3.5068967804162257-10.170001156364494-5.611035588402117-2.8055184106478537 2.1041388079858905-5.9617260061798945 4.208276383078189-8.767244416827747 7.013793560832451 0.7013796026619634-3.5068967804162257 1.4027592053239268-7.715174396388005 2.1041388079858905-11.572760361688415l-8.767243183934157-5.611035588402117h11.222071176804233z m121.68933702042563 124.4948541981799a113.97416262403763 113.97416262403763 0 0 1-65.22828948573309 20.34000477851616c-23.496212374048206 0-46.29104514543445-7.013794793726042-65.22829071862668-20.34000477851616-2.8055184106478537-1.7534483902081128-3.1562075955320394-5.611035588402117-1.4027592053239268-8.065863581272191 1.7534483902081128-2.4548279928700762 5.611035588402117-3.1562075955320394 8.41655399904997-1.4027592053239268 17.183797182984126 11.923450779466195 37.52380196150029 18.23586597053028 58.56518510978483 18.235867203423865s41.381387926800706-6.312415191064079 58.56518510978483-18.235867203423865c2.8055184106478537-1.7534483902081128 6.312415191064079-1.4027592053239268 8.41655399904997 1.4027592053239268 1.4027592053239268 2.8055184106478537 0.7013796026619634 6.312415191064079-2.1041388079858905 8.065863581272191z" fill="#f3ca7e" p-id="3686"></path></svg>