<?xml version="1.0" standalone="no"?><!DOCTYPE svg PUBLIC "-//W3C//DTD SVG 1.1//EN" "http://www.w3.org/Graphics/SVG/1.1/DTD/svg11.dtd"><svg t="1585761925205" class="icon" viewBox="0 0 1024 1024" version="1.1" xmlns="http://www.w3.org/2000/svg" p-id="4935" xmlns:xlink="http://www.w3.org/1999/xlink" width="200" height="200"><defs><style type="text/css"></style></defs><path d="M583.68 256l-85.376 85.333333H170.666667v426.666667h682.666666V408.576l83.754667-83.626667c1.024 5.290667 1.578667 10.752 1.578667 16.384v426.666667a85.333333 85.333333 0 0 1-85.333334 85.333333H170.666667a85.333333 85.333333 0 0 1-85.333334-85.333333V341.333333a85.333333 85.333333 0 0 1 85.333334-85.333333h413.013333z m358.016-131.029333a85.333333 85.333333 0 0 1 0 120.661333L484.821333 702.506667l-86.485333 15.274666a42.666667 42.666667 0 0 1-49.450667-49.450666l15.274667-86.485334 366.336-366.378666L851.2 336.213333l60.330667-60.373333-120.661334-120.661333 30.165334-30.165334a85.333333 85.333333 0 0 1 120.661333 0z" p-id="4936" fill="#0b988f"></path></svg>