<?xml version="1.0" standalone="no"?><!DOCTYPE svg PUBLIC "-//W3C//DTD SVG 1.1//EN" "http://www.w3.org/Graphics/SVG/1.1/DTD/svg11.dtd"><svg t="1585757872103" class="icon" viewBox="0 0 1024 1024" version="1.1" xmlns="http://www.w3.org/2000/svg" p-id="1721" xmlns:xlink="http://www.w3.org/1999/xlink" width="200" height="200"><defs><style type="text/css"></style></defs><path d="M896.853333 896c0 28.16-23.04 51.2-51.2 51.2h-665.6c-28.16 0-51.2-23.04-51.2-51.2V128c0-28.16 23.04-51.2 51.2-51.2h665.6c28.16 0 51.2 23.04 51.2 51.2v768z" fill="#FFFFFF" p-id="1722"></path><path d="M232.106667 277.333333h563.2V844.8h-563.2z" fill="#B3D3EF" p-id="1723"></path><path d="M513.706667 256m-102.4 0a102.4 102.4 0 1 0 204.8 0 102.4 102.4 0 1 0-204.8 0Z" fill="#F65D4F" p-id="1724"></path><path d="M772.266667 874.666667l-57.173334 29.866666 10.24-63.146666-46.933333-45.226667 64-10.24 29.013333-58.026667 29.013334 58.026667 64 8.533333-46.08 46.08 11.093333 63.146667z" fill="#FEBE5D" p-id="1725"></path><path d="M845.653333 68.266667h-665.6c-33.28 0-59.733333 26.453333-59.733333 59.733333v768c0 33.28 26.453333 59.733333 59.733333 59.733333h665.6c33.28 0 59.733333-26.453333 59.733334-59.733333V128c0-33.28-26.453333-59.733333-59.733334-59.733333z m42.666667 827.733333c0 23.893333-18.773333 42.666667-42.666667 42.666667h-665.6c-23.893333 0-42.666667-18.773333-42.666666-42.666667V128c0-23.893333 18.773333-42.666667 42.666666-42.666667h665.6c23.893333 0 42.666667 18.773333 42.666667 42.666667v768z" p-id="1726"></path><path d="M416.426667 428.373333h-51.2c-5.12 0-8.533333 3.413333-8.533334 8.533334s3.413333 8.533333 8.533334 8.533333h51.2c5.12 0 8.533333-3.413333 8.533333-8.533333s-3.413333-8.533333-8.533333-8.533334zM416.426667 509.44h-51.2c-5.12 0-8.533333 3.413333-8.533334 8.533333s3.413333 8.533333 8.533334 8.533334h51.2c5.12 0 8.533333-3.413333 8.533333-8.533334s-3.413333-8.533333-8.533333-8.533333zM416.426667 590.506667h-51.2c-5.12 0-8.533333 3.413333-8.533334 8.533333s3.413333 8.533333 8.533334 8.533333h51.2c5.12 0 8.533333-3.413333 8.533333-8.533333s-3.413333-8.533333-8.533333-8.533333zM502.613333 445.44h170.666667c5.12 0 8.533333-3.413333 8.533333-8.533333s-3.413333-8.533333-8.533333-8.533334h-170.666667c-5.12 0-8.533333 3.413333-8.533333 8.533334s4.266667 8.533333 8.533333 8.533333zM502.613333 526.506667h170.666667c5.12 0 8.533333-3.413333 8.533333-8.533334s-3.413333-8.533333-8.533333-8.533333h-170.666667c-5.12 0-8.533333 3.413333-8.533333 8.533333s4.266667 8.533333 8.533333 8.533334zM502.613333 607.573333h170.666667c5.12 0 8.533333-3.413333 8.533333-8.533333s-3.413333-8.533333-8.533333-8.533333h-170.666667c-5.12 0-8.533333 3.413333-8.533333 8.533333s4.266667 8.533333 8.533333 8.533333zM416.426667 671.573333h-51.2c-5.12 0-8.533333 3.413333-8.533334 8.533334s3.413333 8.533333 8.533334 8.533333h51.2c5.12 0 8.533333-3.413333 8.533333-8.533333s-3.413333-8.533333-8.533333-8.533334zM681.813333 680.106667c0-5.12-3.413333-8.533333-8.533333-8.533334h-170.666667c-5.12 0-8.533333 3.413333-8.533333 8.533334s3.413333 8.533333 8.533333 8.533333h170.666667c5.12 0 8.533333-4.266667 8.533333-8.533333zM500.053333 226.133333h28.16c5.12 0 8.533333-3.413333 8.533334-8.533333s-3.413333-8.533333-8.533334-8.533333h-28.16c-5.12 0-8.533333 3.413333-8.533333 8.533333s3.413333 8.533333 8.533333 8.533333zM474.453333 294.4l40.106667-16.213333 40.106667 16.213333c0.853333 0 2.56 0.853333 3.413333 0.853333 3.413333 0 6.826667-1.706667 7.68-5.12 1.706667-4.266667 0-9.386667-5.12-11.093333l-42.666667-17.066667c-1.706667-0.853333-4.266667-0.853333-6.826666 0l-42.666667 17.066667c-4.266667 1.706667-6.826667 6.826667-5.12 11.093333 1.706667 4.266667 6.826667 5.973333 11.093333 4.266667z" p-id="1727"></path><path d="M865.28 785.92l-59.733333-8.533333-1.706667-3.413334V277.333333c0-5.12-3.413333-8.533333-8.533333-8.533333H623.786667c0.853333-4.266667 0.853333-8.533333 0.853333-12.8 0-20.48-5.973333-40.106667-16.213333-57.173333h186.88c5.12 0 8.533333-3.413333 8.533333-8.533334s-3.413333-8.533333-8.533333-8.533333H596.48c-20.48-22.186667-49.493333-36.693333-82.773333-36.693333s-62.293333 14.506667-82.773334 36.693333H232.106667c-5.12 0-8.533333 3.413333-8.533334 8.533333s3.413333 8.533333 8.533334 8.533334h186.88c-10.24 17.066667-16.213333 35.84-16.213334 57.173333 0 4.266667 0 8.533333 0.853334 12.8H232.106667c-5.12 0-8.533333 3.413333-8.533334 8.533333V844.8c0 5.12 3.413333 8.533333 8.533334 8.533333h482.133333l-8.533333 50.346667c-0.853333 3.413333 0.853333 6.826667 3.413333 8.533333 1.706667 0.853333 3.413333 1.706667 5.12 1.706667 1.706667 0 2.56 0 4.266667-0.853333l52.906666-28.16 53.76 27.306666c2.56 1.706667 5.973333 0.853333 9.386667-0.853333 2.56-1.706667 4.266667-5.12 3.413333-8.533333l-10.24-59.733334 42.666667-42.666666c2.56-2.56 3.413333-5.973333 1.706667-8.533334-0.853333-2.56-3.413333-5.12-6.826667-5.973333zM419.84 256c0-21.333333 7.68-40.96 19.626667-57.173333 5.12-5.973333 10.24-11.946667 17.066666-17.066667 16.213333-12.8 35.84-19.626667 57.173334-19.626667s41.813333 7.68 57.173333 19.626667c5.973333 5.12 11.946667 11.093333 17.066667 17.066667 11.946667 16.213333 19.626667 35.84 19.626666 57.173333 0 4.266667 0 8.533333-0.853333 12.8-0.853333 5.973333-2.56 11.946667-4.266667 17.066667C589.653333 322.56 554.666667 349.866667 513.706667 349.866667s-75.946667-26.453333-88.746667-64c-1.706667-5.12-3.413333-11.093333-4.266667-17.066667 0-4.266667-0.853333-8.533333-0.853333-12.8z m-179.2 580.266667V285.866667h166.4C419.84 332.8 463.36 366.933333 513.706667 366.933333s93.866667-34.133333 106.666666-81.066666h166.4v454.826666l-8.533333-16.213333c-1.706667-2.56-4.266667-5.12-7.68-5.12s-5.973333 1.706667-7.68 5.12l-26.453333 54.613333-59.733334 9.386667c-3.413333 0.853333-5.973333 2.56-6.826666 5.973333-0.853333 3.413333 0 6.826667 2.56 8.533334L708.266667 836.266667H240.64z m571.733333-1.706667c-1.706667 1.706667-2.56 5.12-2.56 7.68l8.533334 46.933333-41.813334-22.186666c-2.56-0.853333-5.12-0.853333-7.68 0l-41.813333 22.186666 5.973333-35.84 1.706667-10.24c0-2.56 0-4.266667-1.706667-6.826666l-0.853333-0.853334-34.133333-33.28 46.933333-6.826666c2.56 0 5.12-2.56 5.973333-5.12l20.48-42.666667 16.213334 31.573333 5.12 11.093334c0.853333 2.56 3.413333 4.266667 6.826666 4.266666l5.12 0.853334 41.813334 5.973333-34.133334 33.28z" p-id="1728"></path></svg>