<?xml version="1.0" standalone="no"?><!DOCTYPE svg PUBLIC "-//W3C//DTD SVG 1.1//EN" "http://www.w3.org/Graphics/SVG/1.1/DTD/svg11.dtd"><svg t="1587540749724" class="icon" viewBox="0 0 1024 1024" version="1.1" xmlns="http://www.w3.org/2000/svg" p-id="1896" xmlns:xlink="http://www.w3.org/1999/xlink" width="200" height="200"><defs><style type="text/css"></style></defs><path d="M326.2 908c-18 0-35.1-4.3-50.2-13.1-35-20.3-55.4-61.7-56-113.4-0.6-61.9-0.5-123.7-0.3-185.6l0.1-61.4-0.2-20.1c0-27.9-0.1-55.7-0.2-83.6-0.2-63.1-0.4-126.2 0.4-189.2 0.6-51.8 21.1-93 56-113.2 35-20.2 79.1-17.5 124.2 7.8 144.7 81.2 300.9 170.9 477.6 274.2 42.1 24.6 66.3 61.3 66.4 100.7 0 39.3-24 76-66.1 100.8C714.8 707.9 552.3 801 395 888.7c-23.2 12.8-46.7 19.3-68.8 19.3z m-61.1-416.4l0.3 22.8-0.1 81.6c-0.2 61.7-0.3 123.4 0.3 185 0.4 35.3 12.5 62.5 33.3 74.5 19.6 11.3 45.8 9 73.9-6.7 157-87.5 319.2-180.4 482-276.2 27.8-16.3 43.7-38.7 43.7-61.5 0-22.8-16-45.2-43.9-61.5C678.1 346.5 522.2 257 377.7 175.9c-30.5-17.1-58.6-20-79.2-8.1-20.7 11.9-32.8 39-33.2 74.3-0.8 62.8-0.6 125.6-0.4 188.5 0.1 20.4 0.1 40.7 0.2 61z" p-id="1897" fill="#707070"></path></svg>