<?xml version="1.0" standalone="no"?><!DOCTYPE svg PUBLIC "-//W3C//DTD SVG 1.1//EN" "http://www.w3.org/Graphics/SVG/1.1/DTD/svg11.dtd"><svg t="1586413954669" class="icon" viewBox="0 0 1024 1024" version="1.1" xmlns="http://www.w3.org/2000/svg" p-id="2193" data-spm-anchor-id="a313x.7781069.0.i0" xmlns:xlink="http://www.w3.org/1999/xlink" width="200" height="200"><defs><style type="text/css"></style></defs><path d="M512 516.388571m-170.666667 0a170.666667 170.666667 0 1 0 341.333334 0 170.666667 170.666667 0 1 0-341.333334 0Z" fill="#d4237a" p-id="2194" data-spm-anchor-id="a313x.7781069.0.i4" class=""></path><path d="M512 801.645714c-159.695238 0-289.645714-129.950476-289.645714-289.645714 0-159.695238 129.950476-289.645714 289.645714-289.645714S801.645714 352.304762 801.645714 512c0 45.348571-10.24 88.746667-30.232381 129.219048-2.925714 6.095238-10.24 8.533333-16.335238 5.363809a11.897905 11.897905 0 0 1-5.363809-16.335238A261.12 261.12 0 0 0 777.508571 512c0-146.285714-118.979048-265.264762-265.264761-265.264762S246.735238 365.714286 246.735238 512 365.714286 777.264762 512 777.264762c41.935238 0 81.92-9.508571 118.979048-28.038095 6.095238-2.925714 13.409524-0.731429 16.335238 5.363809s0.487619 13.409524-5.36381 16.335238c-40.472381 20.48-84.114286 30.72-129.950476 30.72z" p-id="2195" data-spm-anchor-id="a313x.7781069.0.i1" class="" fill="#d4237a"></path><path d="M512 966.948571c-27.550476 0-56.07619-2.681905-85.089524-8.289523a11.897905 11.897905 0 0 1-9.020952-7.558096c-11.459048-29.988571-30.96381-80.457143-50.956191-88.746666-21.455238-8.777143-70.704762 12.921905-100.205714 25.843809-3.900952 1.706667-8.289524 1.219048-11.702857-1.219047-46.32381-31.939048-86.064762-71.43619-118.00381-118.00381a11.897905 11.897905 0 0 1-1.219047-11.702857c12.921905-29.500952 34.620952-78.994286 25.843809-100.205714-8.289524-19.992381-58.514286-39.497143-88.746666-50.956191a11.897905 11.897905 0 0 1-7.558096-9.020952A446.902857 446.902857 0 0 1 57.051429 512c0-27.550476 2.681905-56.07619 8.289523-85.089524 0.731429-4.144762 3.657143-7.558095 7.558096-9.020952 29.988571-11.459048 80.213333-30.96381 88.746666-50.956191 8.777143-21.455238-12.678095-70.704762-25.843809-100.205714a11.849143 11.849143 0 0 1 1.219047-11.702857c31.939048-46.32381 71.43619-86.064762 118.00381-118.00381 3.413333-2.438095 8.045714-2.925714 11.702857-1.219047 29.500952 12.921905 78.750476 34.620952 100.205714 25.843809 19.992381-8.289524 39.497143-58.514286 50.956191-88.746666 1.462857-3.900952 4.87619-6.826667 9.020952-7.558096 57.782857-10.971429 112.39619-10.971429 169.935238 0 4.144762 0.731429 7.558095 3.657143 9.020953 7.558096 11.459048 29.988571 30.96381 80.213333 50.95619 88.746666 21.455238 8.777143 70.704762-12.921905 100.205714-25.843809 3.900952-1.706667 8.289524-1.219048 11.702858 1.219047 46.32381 31.939048 86.064762 71.43619 118.003809 118.00381 2.438095 3.413333 2.925714 8.045714 1.219048 11.702857-12.921905 29.500952-34.620952 78.994286-25.84381 100.205714 8.289524 19.992381 58.514286 39.497143 88.746667 50.956191 3.900952 1.462857 6.826667 4.87619 7.558095 9.020952 5.36381 28.769524 8.289524 57.295238 8.289524 85.089524 0 27.550476-2.681905 56.32-8.289524 85.089524-0.731429 4.144762-3.657143 7.558095-7.558095 9.020952-29.988571 11.459048-80.213333 30.96381-88.746667 50.956191-8.777143 21.455238 12.678095 70.704762 25.84381 100.205714 1.706667 3.900952 1.219048 8.289524-1.219048 11.702857-31.939048 46.32381-71.43619 86.064762-118.003809 118.00381-3.413333 2.438095-8.045714 2.925714-11.702858 1.219047-29.500952-12.921905-78.994286-34.864762-100.205714-25.843809-19.992381 8.289524-39.497143 58.514286-50.95619 88.746666-1.462857 3.900952-4.87619 6.826667-9.020953 7.558096-28.769524 5.607619-57.295238 8.289524-84.845714 8.289523z m-73.874286-30.963809c50.224762 8.777143 97.52381 8.777143 147.748572 0 18.041905-46.567619 35.59619-85.089524 61.927619-96.060952 27.306667-11.459048 68.998095 4.144762 113.127619 23.161904a427.885714 427.885714 0 0 0 102.15619-102.15619c-19.260952-44.373333-34.620952-85.820952-23.161904-113.127619 10.971429-26.331429 49.493333-43.885714 96.060952-61.927619 4.388571-25.112381 6.582857-49.980952 6.582857-73.874286s-2.194286-48.761905-6.582857-73.874286c-46.567619-18.041905-85.089524-35.59619-96.060952-61.927619-11.459048-27.306667 3.900952-68.998095 23.161904-113.127619a427.885714 427.885714 0 0 0-102.15619-102.15619c-44.373333 19.260952-85.820952 34.620952-113.127619 23.161904-26.331429-10.971429-43.885714-49.493333-61.927619-96.060952-50.224762-8.777143-97.52381-8.777143-147.748572 0-18.041905 46.567619-35.59619 85.089524-61.927619 96.060952-27.306667 11.459048-68.998095-3.900952-113.127619-23.161904a423.472762 423.472762 0 0 0-102.15619 102.15619c19.260952 44.373333 34.620952 85.820952 23.161904 113.127619-10.971429 26.331429-49.493333 43.885714-96.060952 61.927619-4.388571 25.112381-6.582857 49.980952-6.582857 73.874286s2.194286 48.761905 6.582857 73.874286c46.567619 18.041905 85.089524 35.59619 96.060952 61.927619 11.459048 27.306667-3.900952 68.998095-23.161904 113.127619a427.885714 427.885714 0 0 0 102.15619 102.15619c44.373333-19.260952 85.820952-34.620952 113.127619-23.161904 26.331429 10.971429 43.885714 49.493333 61.927619 96.060952z" p-id="2196" data-spm-anchor-id="a313x.7781069.0.i2" class="" fill="#d4237a"></path><path d="M429.104762 422.765714h-63.634286c-6.826667 0-12.190476-5.36381-12.190476-12.190476s5.36381-12.190476 12.190476-12.190476h63.634286c6.826667 0 12.190476 5.36381 12.190476 12.190476s-5.36381 12.190476-12.190476 12.190476zM658.529524 422.765714H487.619048c-6.826667 0-12.190476-5.36381-12.190477-12.190476s5.36381-12.190476 12.190477-12.190476h170.910476c6.826667 0 12.190476 5.36381 12.190476 12.190476s-5.36381 12.190476-12.190476 12.190476zM541.744762 524.190476h-176.274286c-6.826667 0-12.190476-5.36381-12.190476-12.190476s5.36381-12.190476 12.190476-12.190476h176.274286c6.826667 0 12.190476 5.36381 12.190476 12.190476s-5.607619 12.190476-12.190476 12.190476zM658.529524 524.190476h-58.270476c-6.826667 0-12.190476-5.36381-12.190477-12.190476s5.36381-12.190476 12.190477-12.190476h58.270476c6.826667 0 12.190476 5.36381 12.190476 12.190476s-5.36381 12.190476-12.190476 12.190476zM429.104762 625.615238h-63.634286c-6.826667 0-12.190476-5.36381-12.190476-12.190476s5.36381-12.190476 12.190476-12.190476h63.634286c6.826667 0 12.190476 5.36381 12.190476 12.190476s-5.36381 12.190476-12.190476 12.190476zM658.529524 625.615238H487.619048c-6.826667 0-12.190476-5.36381-12.190477-12.190476s5.36381-12.190476 12.190477-12.190476h170.910476c6.826667 0 12.190476 5.36381 12.190476 12.190476s-5.36381 12.190476-12.190476 12.190476z" p-id="2197" data-spm-anchor-id="a313x.7781069.0.i5" class="selected" fill="#bfbfbf"></path><path d="M458.361905 452.022857c-22.918095 0-41.447619-18.529524-41.447619-41.447619s18.529524-41.447619 41.447619-41.447619 41.447619 18.529524 41.447619 41.447619c0 22.674286-18.529524 41.447619-41.447619 41.447619z m0-58.514286c-9.508571 0-17.066667 7.558095-17.066667 17.066667s7.558095 17.066667 17.066667 17.066667c9.508571 0 17.066667-7.558095 17.066666-17.066667s-7.558095-17.066667-17.066666-17.066667zM458.361905 654.872381c-22.918095 0-41.447619-18.529524-41.447619-41.447619s18.529524-41.447619 41.447619-41.447619 41.447619 18.529524 41.447619 41.447619-18.529524 41.447619-41.447619 41.447619z m0-58.514286c-9.508571 0-17.066667 7.558095-17.066667 17.066667s7.558095 17.066667 17.066667 17.066667c9.508571 0 17.066667-7.558095 17.066666-17.066667s-7.558095-17.066667-17.066666-17.066667zM571.001905 553.447619c-22.918095 0-41.447619-18.529524-41.447619-41.447619s18.529524-41.447619 41.447619-41.447619 41.447619 18.529524 41.447619 41.447619-18.773333 41.447619-41.447619 41.447619z m0-58.514286c-9.508571 0-17.066667 7.558095-17.066667 17.066667s7.558095 17.066667 17.066667 17.066667c9.508571 0 17.066667-7.558095 17.066666-17.066667s-7.801905-17.066667-17.066666-17.066667z" p-id="2198" data-spm-anchor-id="a313x.7781069.0.i6" class="selected" fill="#bfbfbf"></path></svg>