<?xml version="1.0" standalone="no"?><!DOCTYPE svg PUBLIC "-//W3C//DTD SVG 1.1//EN" "http://www.w3.org/Graphics/SVG/1.1/DTD/svg11.dtd"><svg t="1588215367602" class="icon" viewBox="0 0 1024 1024" version="1.1" xmlns="http://www.w3.org/2000/svg" p-id="3177" xmlns:xlink="http://www.w3.org/1999/xlink" width="200" height="200"><defs><style type="text/css"></style></defs><path d="M823.936 0.512 200.106667 0.512c-110.336 0-199.594667 89.344-199.594667 199.637333l0 623.786667c0 110.250667 89.344 199.637333 199.594667 199.637333l623.829333 0c110.250667 0 199.594667-89.386667 199.594667-199.637333L1023.530667 200.106667C1023.488 89.856 934.186667 0.512 823.936 0.512zM112.256 756.48c6.357333-56.405333 47.104-103.637333 97.322667-119.168-28.245333-15.658667-47.104-47.061333-47.104-81.408 0-53.333333 43.904-97.194667 97.152-97.194667 53.376 0 94.122667 40.789333 94.122667 93.994667 0 9.429333-3.072 22.058667-6.272 31.274667-53.205333 40.746667-90.922667 103.509333-100.352 172.416L112.256 756.394667 112.256 756.48zM265.984 756.48c12.501333-90.922667 78.378667-166.229333 162.944-197.418667-47.018667-28.288-78.293333-78.378667-78.293333-134.869333 0-87.765333 68.864-156.714667 156.672-156.714667 87.765333 0 156.842667 68.992 156.842667 156.714667 0 56.448-31.402667 109.696-78.506667 134.869333 87.808 31.189333 150.442667 106.496 162.986667 197.418667L265.984 756.48zM764.416 756.48c-9.514667-65.834667-40.832-125.354667-90.965333-166.229333-6.229333-12.501333-9.301333-25.002667-9.301333-37.504 0-53.333333 43.776-97.194667 97.024-97.194667 53.376 0 97.152 43.861333 97.152 97.194667 0 34.346667-18.773333 65.706667-47.061333 81.450667 53.248 18.688 90.922667 65.834667 100.437333 122.24L764.416 756.437333 764.416 756.48z" p-id="3178" fill="#fc56a9"></path></svg>