<?xml version="1.0" standalone="no"?><!DOCTYPE svg PUBLIC "-//W3C//DTD SVG 1.1//EN" "http://www.w3.org/Graphics/SVG/1.1/DTD/svg11.dtd"><svg t="1588750545026" class="icon" viewBox="0 0 1024 1024" version="1.1" xmlns="http://www.w3.org/2000/svg" p-id="2128" xmlns:xlink="http://www.w3.org/1999/xlink" width="200" height="200"><defs><style type="text/css"></style></defs><path d="M495.976 476.195c19.777 17.656 21.494 48 3.837 67.774a48.003 48.003 0 0 1-3.837 3.836L536.082 512l-40.106-35.805zM864 212.083v-82.217a8 8 0 0 0-13.328-5.967L442.69 488.13c-0.9 0.804-1.754 1.657-2.558 2.557-11.772 13.184-10.626 33.412 2.558 45.183l407.983 364.231A8 8 0 0 0 864 894.134v-82.217a16 16 0 0 0-5.344-11.936L536.082 512l322.574-287.981A16 16 0 0 0 864 212.083zM495.976 476.195c19.777 17.656 21.494 48 3.837 67.774a48.003 48.003 0 0 1-3.837 3.836L536.082 512l-40.106-35.805zM864 212.083v-82.217a8 8 0 0 0-13.328-5.967L442.69 488.13c-0.9 0.804-1.754 1.657-2.558 2.557-11.772 13.184-10.626 33.412 2.558 45.183l407.983 364.231A8 8 0 0 0 864 894.134v-82.217a16 16 0 0 0-5.344-11.936L536.082 512l322.574-287.981A16 16 0 0 0 864 212.083z" fill="#e6e6e6" p-id="2129"></path><path d="M223.976 476.195c19.777 17.656 21.494 48 3.837 67.774a48.003 48.003 0 0 1-3.837 3.836L264.082 512l-40.106-35.805zM592 212.083v-82.217a8 8 0 0 0-13.328-5.967L170.69 488.13c-0.9 0.804-1.754 1.657-2.558 2.557-11.772 13.184-10.626 33.412 2.558 45.183l407.983 364.231A8 8 0 0 0 592 894.134v-82.217a16 16 0 0 0-5.344-11.936L264.082 512l322.574-287.981A16 16 0 0 0 592 212.083zM223.976 476.195c19.777 17.656 21.494 48 3.837 67.774a48.003 48.003 0 0 1-3.837 3.836L264.082 512l-40.106-35.805zM592 212.083v-82.217a8 8 0 0 0-13.328-5.967L170.69 488.13c-0.9 0.804-1.754 1.657-2.558 2.557-11.772 13.184-10.626 33.412 2.558 45.183l407.983 364.231A8 8 0 0 0 592 894.134v-82.217a16 16 0 0 0-5.344-11.936L264.082 512l322.574-287.981A16 16 0 0 0 592 212.083z" fill="#e6e6e6" p-id="2130"></path></svg>