<?xml version="1.0" standalone="no"?><!DOCTYPE svg PUBLIC "-//W3C//DTD SVG 1.1//EN" "http://www.w3.org/Graphics/SVG/1.1/DTD/svg11.dtd"><svg t="1586264112331" class="icon" viewBox="0 0 1024 1024" version="1.1" xmlns="http://www.w3.org/2000/svg" p-id="3096" xmlns:xlink="http://www.w3.org/1999/xlink" width="200" height="200"><defs><style type="text/css"></style></defs><path d="M46.802824 37.647059a30.117647 30.117647 0 0 1 30.117647-30.117647h903.529411a30.117647 30.117647 0 0 1 30.117647 30.117647v4.035765a30.117647 30.117647 0 0 1-30.117647 30.117647h-903.529411a30.117647 30.117647 0 0 1-30.117647-30.117647V37.647059zM46.802824 294.671059a30.117647 30.117647 0 0 1 30.117647-30.117647h903.529411a30.117647 30.117647 0 0 1 30.117647 30.117647v3.975529a30.117647 30.117647 0 0 1-30.117647 30.117647h-903.529411a30.117647 30.117647 0 0 1-30.117647-30.117647v-3.975529zM46.802824 551.634824a30.117647 30.117647 0 0 1 30.117647-30.117648h765.831529a30.117647 30.117647 0 0 1 30.117647 30.117648v4.035764a30.117647 30.117647 0 0 1-30.117647 30.117647H76.920471a30.117647 30.117647 0 0 1-30.117647-30.117647v-4.035764zM46.802824 808.658824a30.117647 30.117647 0 0 1 30.117647-30.117648h352.798117a30.117647 30.117647 0 0 1 30.117647 30.117648v4.035764a30.117647 30.117647 0 0 1-30.117647 30.117647H76.920471a30.117647 30.117647 0 0 1-30.117647-30.117647v-4.035764z" fill="#f1529a" p-id="3097"></path><path d="M971.836235 521.517176a30.117647 30.117647 0 0 0-30.117647 30.117648v196.788705a30.117647 30.117647 0 0 1-30.117647 30.117647h-176.368941v-128.481882l-176.007529 136.854588a30.117647 30.117647 0 0 0 0 47.525647l176.007529 136.854589v-128.481883h245.217882a30.117647 30.117647 0 0 0 30.117647-30.117647V551.634824a30.117647 30.117647 0 0 0-30.117647-30.117648h-8.613647z" fill="#f1529a" p-id="3098"></path></svg>