<?xml version="1.0" standalone="no"?><!DOCTYPE svg PUBLIC "-//W3C//DTD SVG 1.1//EN" "http://www.w3.org/Graphics/SVG/1.1/DTD/svg11.dtd"><svg t="1587301176427" class="icon" viewBox="0 0 1192 1024" version="1.1" xmlns="http://www.w3.org/2000/svg" p-id="3304" xmlns:xlink="http://www.w3.org/1999/xlink" width="232.8125" height="200"><defs><style type="text/css"></style></defs><path d="M0.630874 401.706544h2.040307v2.040307h-2.040307z" p-id="3305" fill="#efb336"></path><path d="M363.805416 7.927407H227.104886C198.540596 7.927407 174.056919 34.45139 174.056919 67.096293v820.203177c0 32.644903 24.483677 59.168886 53.047967 59.168886h136.70053c28.56429 0 53.047967-26.523983 53.047966-59.168886V67.096293C416.853382 34.45139 392.369705 7.927407 363.805416 7.927407z m12.241838 879.372063c0 8.161226-6.120919 14.282145-12.241838 14.282145H227.104886c-6.120919 0-12.241838-6.120919-12.241839-14.282145V67.096293c0-8.161226 6.120919-14.282145 12.241839-14.282145h136.70053c6.120919 0 12.241838 6.120919 12.241838 14.282145v820.203177zM663.730458 7.927407h-136.700529C498.465639 7.927407 473.981962 34.45139 473.981962 67.096293v820.203177c0 32.644903 24.483677 59.168886 53.047967 59.168886h136.700529c28.56429 0 53.047967-26.523983 53.047967-59.168886V67.096293C714.738119 34.45139 692.294748 7.927407 663.730458 7.927407z m10.201532 879.372063c0 8.161226-6.120919 14.282145-12.241838 14.282145h-136.70053c-6.120919 0-12.241838-6.120919-12.241838-14.282145V67.096293c0-8.161226 6.120919-14.282145 12.241838-14.282145h136.70053c6.120919 0 12.241838 6.120919 12.241838 14.282145v820.203177zM908.567228 1.806487l-132.619917 34.685209c-28.56429 8.161226-44.886741 38.765822-34.685209 71.410725l212.191867 791.638888c8.161226 30.604596 38.765822 51.00766 65.289805 42.846434l132.619917-34.685209c28.56429-8.161226 44.886741-38.765822 34.685209-71.410724L973.857033 44.652922C965.695807 14.048326 937.131518-6.354738 908.567228 1.806487zM1147.283078 846.493342c2.040306 8.161226-2.040306 14.282145-8.161226 16.322451l-132.619916 34.685209c-6.120919 2.040306-12.241838-2.040306-14.282145-10.201532L780.027924 97.700889c-2.040306-8.161226 2.040306-14.282145 8.161225-16.322452l132.619917-34.685209c6.120919-2.040306 12.241838 2.040306 14.282145 10.201532L1147.283078 846.493342z" p-id="3306" fill="#efb336"></path></svg>